<svg xmlns="http://www.w3.org/2000/svg" xmlns:xlink="http://www.w3.org/1999/xlink" width="500" zoomAndPan="magnify" viewBox="0 0 375 374.999991" height="500" preserveAspectRatio="xMidYMid meet" version="1.0"><defs><g/><clipPath id="4341634831"><path d="M 64.390625 20 L 310.390625 20 L 310.390625 157 L 64.390625 157 Z M 64.390625 20 " clip-rule="nonzero"/></clipPath><clipPath id="58a64b5fd6"><path d="M 111.039062 88.144531 L 185 88.144531 L 185 241.144531 L 111.039062 241.144531 Z M 111.039062 88.144531 " clip-rule="nonzero"/></clipPath><clipPath id="587769df2b"><path d="M 190 88.144531 L 264 88.144531 L 264 241.144531 L 190 241.144531 Z M 190 88.144531 " clip-rule="nonzero"/></clipPath><clipPath id="6e7dff32fc"><path d="M 146 88.144531 L 229 88.144531 L 229 147 L 146 147 Z M 146 88.144531 " clip-rule="nonzero"/></clipPath></defs><g clip-path="url(#4341634831)"><path fill="#7db56e" d="M 90.902344 121.210938 C 87.566406 110.097656 85.003906 98.507812 83.273438 86.71875 C 91.421875 85.507812 100.835938 82.921875 111.316406 79.007812 C 122.726562 74.742188 135.582031 68.867188 149.535156 61.527344 C 166.15625 52.789062 180.5625 43.925781 187.460938 39.5625 C 187.472656 39.570312 187.484375 39.578125 187.496094 39.585938 C 187.507812 39.578125 187.519531 39.570312 187.53125 39.5625 C 194.429688 43.925781 208.835938 52.789062 225.457031 61.527344 C 239.410156 68.867188 252.265625 74.742188 263.675781 79.007812 C 274.15625 82.921875 283.574219 85.507812 291.71875 86.71875 C 289.988281 98.507812 287.425781 110.097656 284.089844 121.210938 C 280.492188 133.183594 275.90625 144.914062 270.457031 156.09375 C 301.730469 122.199219 310.601562 71.46875 310.601562 71.46875 L 301.292969 71.359375 C 286.535156 71.1875 263.164062 62.914062 233.703125 47.429688 C 210.894531 35.441406 192.539062 23.320312 192.359375 23.195312 L 187.53125 20 L 187.496094 20.023438 L 187.460938 20 L 182.632812 23.195312 C 182.453125 23.320312 164.097656 35.441406 141.289062 47.429688 C 111.828125 62.914062 88.457031 71.1875 73.699219 71.359375 L 64.390625 71.46875 C 64.390625 71.46875 73.261719 122.199219 104.535156 156.09375 C 99.085938 144.914062 94.5 133.183594 90.902344 121.210938 " fill-opacity="1" fill-rule="nonzero"/></g><path fill="#7db56e" d="M 187.53125 250.671875 C 187.519531 250.664062 187.507812 250.65625 187.496094 250.648438 C 187.484375 250.65625 187.472656 250.664062 187.460938 250.671875 C 134.113281 216.488281 88.582031 147.867188 79.863281 134.730469 C 82.84375 143.226562 86.226562 151.554688 89.984375 159.625 C 100.339844 181.859375 113.6875 202.582031 129.648438 221.214844 C 143.859375 237.804688 157.574219 249.648438 166.582031 256.664062 C 176.488281 264.386719 183.046875 268.148438 183.320312 268.304688 L 187.460938 270.667969 L 187.496094 270.648438 L 187.53125 270.667969 L 191.671875 268.304688 C 191.945312 268.148438 198.503906 264.386719 208.410156 256.664062 C 217.417969 249.648438 231.132812 237.804688 245.34375 221.214844 C 261.304688 202.582031 274.652344 181.859375 285.007812 159.625 C 288.765625 151.554688 292.148438 143.226562 295.128906 134.730469 C 286.410156 147.867188 240.882812 216.488281 187.53125 250.671875 " fill-opacity="1" fill-rule="nonzero"/><g clip-path="url(#58a64b5fd6)"><path fill="#336f29" d="M 172.652344 162.4375 C 188 185.003906 183.875 241.050781 183.875 241.050781 C 172.652344 162.4375 123.066406 160.359375 112.65625 110.148438 C 111.148438 102.878906 111.035156 95.621094 111.929688 88.636719 C 112.085938 91.710938 112.457031 94.804688 113.0625 97.914062 C 118.390625 125.109375 155.554688 137.296875 172.652344 162.4375 " fill-opacity="1" fill-rule="nonzero"/></g><g clip-path="url(#587769df2b)"><path fill="#336f29" d="M 202.34375 162.4375 C 186.996094 185.003906 191.125 241.050781 191.125 241.050781 C 202.34375 162.4375 251.929688 160.359375 262.34375 110.148438 C 263.847656 102.878906 263.960938 95.621094 263.066406 88.636719 C 262.914062 91.710938 262.542969 94.804688 261.933594 97.910156 C 256.605469 125.109375 219.445312 137.296875 202.34375 162.4375 " fill-opacity="1" fill-rule="nonzero"/></g><g clip-path="url(#6e7dff32fc)"><path fill="#336f29" d="M 226.042969 92.332031 L 185.8125 88.484375 C 182.421875 88.160156 177.027344 88.835938 173.820312 89.984375 L 148.621094 99.03125 C 145.414062 100.183594 145.566406 101.390625 148.957031 101.714844 L 169.054688 103.636719 L 169.054688 117.304688 C 169.183594 117.277344 169.320312 117.253906 169.449219 117.226562 C 168.457031 119.753906 167.90625 122.53125 167.90625 125.445312 C 167.90625 137.105469 176.679688 146.554688 187.5 146.554688 C 198.320312 146.554688 207.089844 137.105469 207.089844 125.445312 C 207.089844 122.53125 206.542969 119.753906 205.550781 117.226562 C 205.679688 117.253906 205.8125 117.277344 205.941406 117.304688 L 205.941406 103.949219 C 201.992188 102.589844 189.675781 101.308594 189.675781 101.308594 C 196.210938 100.390625 205.941406 102.351562 205.941406 102.351562 L 219.527344 97.476562 L 219.527344 107.914062 C 218.503906 108.070312 217.765625 108.507812 217.765625 109.027344 C 217.765625 109.492188 218.375 109.898438 219.25 110.085938 C 218.777344 111.109375 218.46875 112.773438 218.46875 114.652344 C 218.46875 117.761719 220.347656 120.28125 220.347656 120.28125 C 220.347656 120.28125 222.222656 117.761719 222.222656 114.652344 C 222.222656 112.773438 221.914062 111.109375 221.441406 110.085938 C 222.316406 109.898438 222.925781 109.492188 222.925781 109.027344 C 222.925781 108.507812 222.1875 108.070312 221.167969 107.914062 L 221.167969 96.886719 L 226.378906 95.015625 C 229.582031 93.863281 229.433594 92.65625 226.042969 92.332031 " fill-opacity="1" fill-rule="nonzero"/></g><g fill="#14444c" fill-opacity="1"><g transform="translate(31.306051, 316.48696)"><g><path d="M 18.234375 -35.15625 C 22.648438 -35.15625 26.28125 -34.257812 29.125 -32.46875 C 31.96875 -30.675781 33.425781 -28.019531 33.5 -24.5 L 33.5 -23.90625 L 23.09375 -23.90625 L 23.09375 -24.109375 C 23.09375 -25.109375 22.722656 -25.941406 21.984375 -26.609375 C 21.253906 -27.285156 20.132812 -27.625 18.625 -27.625 C 17.15625 -27.625 16.023438 -27.40625 15.234375 -26.96875 C 14.453125 -26.53125 14.0625 -25.992188 14.0625 -25.359375 C 14.0625 -24.453125 14.597656 -23.78125 15.671875 -23.34375 C 16.742188 -22.914062 18.46875 -22.46875 20.84375 -22 C 23.625 -21.425781 25.90625 -20.828125 27.6875 -20.203125 C 29.476562 -19.585938 31.046875 -18.578125 32.390625 -17.171875 C 33.734375 -15.765625 34.421875 -13.859375 34.453125 -11.453125 C 34.453125 -7.367188 33.066406 -4.335938 30.296875 -2.359375 C 27.535156 -0.378906 23.847656 0.609375 19.234375 0.609375 C 13.847656 0.609375 9.65625 -0.296875 6.65625 -2.109375 C 3.65625 -3.921875 2.15625 -7.117188 2.15625 -11.703125 L 12.65625 -11.703125 C 12.65625 -9.960938 13.101562 -8.796875 14 -8.203125 C 14.90625 -7.617188 16.316406 -7.328125 18.234375 -7.328125 C 19.640625 -7.328125 20.800781 -7.476562 21.71875 -7.78125 C 22.632812 -8.082031 23.09375 -8.703125 23.09375 -9.640625 C 23.09375 -10.472656 22.582031 -11.097656 21.5625 -11.515625 C 20.539062 -11.941406 18.878906 -12.390625 16.578125 -12.859375 C 13.765625 -13.460938 11.4375 -14.085938 9.59375 -14.734375 C 7.75 -15.390625 6.140625 -16.46875 4.765625 -17.96875 C 3.398438 -19.476562 2.71875 -21.523438 2.71875 -24.109375 C 2.71875 -27.890625 4.179688 -30.675781 7.109375 -32.46875 C 10.035156 -34.257812 13.742188 -35.15625 18.234375 -35.15625 Z M 18.234375 -35.15625 "/></g></g></g><g fill="#14444c" fill-opacity="1"><g transform="translate(67.553414, 316.48696)"><g><path d="M 20.1875 -35.15625 C 25.3125 -35.15625 29.363281 -33.875 32.34375 -31.3125 C 35.320312 -28.75 36.8125 -25.09375 36.8125 -20.34375 L 26.21875 -20.34375 C 26.21875 -22.351562 25.6875 -23.941406 24.625 -25.109375 C 23.570312 -26.273438 22.078125 -26.859375 20.140625 -26.859375 C 17.890625 -26.859375 16.238281 -26.15625 15.1875 -24.75 C 14.132812 -23.351562 13.609375 -21.394531 13.609375 -18.875 L 13.609375 -15.671875 C 13.609375 -13.191406 14.132812 -11.238281 15.1875 -9.8125 C 16.238281 -8.394531 17.851562 -7.6875 20.03125 -7.6875 C 22.175781 -7.6875 23.800781 -8.238281 24.90625 -9.34375 C 26.007812 -10.445312 26.5625 -12.003906 26.5625 -14.015625 L 36.8125 -14.015625 C 36.8125 -9.296875 35.363281 -5.675781 32.46875 -3.15625 C 29.570312 -0.644531 25.476562 0.609375 20.1875 0.609375 C 14.289062 0.609375 9.828125 -0.894531 6.796875 -3.90625 C 3.773438 -6.925781 2.265625 -11.382812 2.265625 -17.28125 C 2.265625 -23.164062 3.773438 -27.613281 6.796875 -30.625 C 9.828125 -33.644531 14.289062 -35.15625 20.1875 -35.15625 Z M 20.1875 -35.15625 "/></g></g></g><g fill="#14444c" fill-opacity="1"><g transform="translate(106.612224, 316.48696)"><g><path d="M 27.015625 0 L 27.015625 -13.109375 L 14.8125 -13.109375 L 14.8125 0 L 3.71875 0 L 3.71875 -34.546875 L 14.8125 -34.546875 L 14.8125 -21.953125 L 27.015625 -21.953125 L 27.015625 -34.546875 L 38.109375 -34.546875 L 38.109375 0 Z M 27.015625 0 "/></g></g></g><g fill="#14444c" fill-opacity="1"><g transform="translate(148.432246, 316.48696)"><g><path d="M 20.890625 -35.15625 C 26.847656 -35.15625 31.453125 -33.628906 34.703125 -30.578125 C 37.953125 -27.535156 39.578125 -23.101562 39.578125 -17.28125 C 39.578125 -11.445312 37.953125 -7.003906 34.703125 -3.953125 C 31.453125 -0.910156 26.847656 0.609375 20.890625 0.609375 C 14.929688 0.609375 10.335938 -0.90625 7.109375 -3.9375 C 3.878906 -6.96875 2.265625 -11.414062 2.265625 -17.28125 C 2.265625 -23.132812 3.878906 -27.578125 7.109375 -30.609375 C 10.335938 -33.640625 14.929688 -35.15625 20.890625 -35.15625 Z M 20.890625 -26.859375 C 18.515625 -26.859375 16.707031 -26.140625 15.46875 -24.703125 C 14.226562 -23.265625 13.609375 -21.320312 13.609375 -18.875 L 13.609375 -15.671875 C 13.609375 -13.222656 14.226562 -11.28125 15.46875 -9.84375 C 16.707031 -8.40625 18.515625 -7.6875 20.890625 -7.6875 C 23.265625 -7.6875 25.078125 -8.40625 26.328125 -9.84375 C 27.585938 -11.28125 28.21875 -13.222656 28.21875 -15.671875 L 28.21875 -18.875 C 28.21875 -21.320312 27.585938 -23.265625 26.328125 -24.703125 C 25.078125 -26.140625 23.265625 -26.859375 20.890625 -26.859375 Z M 20.890625 -26.859375 "/></g></g></g><g fill="#14444c" fill-opacity="1"><g transform="translate(190.252268, 316.48696)"><g><path d="M 20.890625 -35.15625 C 26.847656 -35.15625 31.453125 -33.628906 34.703125 -30.578125 C 37.953125 -27.535156 39.578125 -23.101562 39.578125 -17.28125 C 39.578125 -11.445312 37.953125 -7.003906 34.703125 -3.953125 C 31.453125 -0.910156 26.847656 0.609375 20.890625 0.609375 C 14.929688 0.609375 10.335938 -0.90625 7.109375 -3.9375 C 3.878906 -6.96875 2.265625 -11.414062 2.265625 -17.28125 C 2.265625 -23.132812 3.878906 -27.578125 7.109375 -30.609375 C 10.335938 -33.640625 14.929688 -35.15625 20.890625 -35.15625 Z M 20.890625 -26.859375 C 18.515625 -26.859375 16.707031 -26.140625 15.46875 -24.703125 C 14.226562 -23.265625 13.609375 -21.320312 13.609375 -18.875 L 13.609375 -15.671875 C 13.609375 -13.222656 14.226562 -11.28125 15.46875 -9.84375 C 16.707031 -8.40625 18.515625 -7.6875 20.890625 -7.6875 C 23.265625 -7.6875 25.078125 -8.40625 26.328125 -9.84375 C 27.585938 -11.28125 28.21875 -13.222656 28.21875 -15.671875 L 28.21875 -18.875 C 28.21875 -21.320312 27.585938 -23.265625 26.328125 -24.703125 C 25.078125 -26.140625 23.265625 -26.859375 20.890625 -26.859375 Z M 20.890625 -26.859375 "/></g></g></g><g fill="#14444c" fill-opacity="1"><g transform="translate(232.07229, 316.48696)"><g><path d="M 3.71875 -34.546875 L 14.8125 -34.546875 L 14.8125 -8.84375 L 32.546875 -8.84375 L 32.546875 0 L 3.71875 0 Z M 3.71875 -34.546875 "/></g></g></g><g fill="#14444c" fill-opacity="1"><g transform="translate(265.55844, 316.48696)"><g><path d="M 26.859375 0 L 25.40625 -4.875 L 13.3125 -4.875 L 11.859375 0 L 0.5 0 L 13.109375 -34.546875 L 26.015625 -34.546875 L 38.625 0 Z M 15.625 -12.609375 L 23.09375 -12.609375 L 19.484375 -24.90625 L 19.28125 -24.90625 Z M 15.625 -12.609375 "/></g></g></g><g fill="#14444c" fill-opacity="1"><g transform="translate(304.61725, 316.48696)"><g><path d="M 36.515625 -23.953125 C 36.515625 -21.847656 35.941406 -19.941406 34.796875 -18.234375 C 33.660156 -16.523438 32.003906 -15.269531 29.828125 -14.46875 L 37.515625 0 L 25.0625 0 L 18.9375 -12.609375 L 14.8125 -12.609375 L 14.8125 0 L 3.71875 0 L 3.71875 -34.546875 L 24.859375 -34.546875 C 27.335938 -34.546875 29.453125 -34.066406 31.203125 -33.109375 C 32.960938 -32.160156 34.285156 -30.875 35.171875 -29.25 C 36.066406 -27.625 36.515625 -25.859375 36.515625 -23.953125 Z M 25.203125 -23.5 C 25.203125 -24.40625 24.898438 -25.160156 24.296875 -25.765625 C 23.703125 -26.367188 22.96875 -26.671875 22.09375 -26.671875 L 14.8125 -26.671875 L 14.8125 -20.28125 L 22.09375 -20.28125 C 22.96875 -20.28125 23.703125 -20.585938 24.296875 -21.203125 C 24.898438 -21.828125 25.203125 -22.59375 25.203125 -23.5 Z M 25.203125 -23.5 "/></g></g></g><g fill="#336f29" fill-opacity="1"><g transform="translate(79.930527, 353.77646)"><g><path d="M 8.5 0.28125 C 7.28125 0.28125 6.179688 0.113281 5.203125 -0.21875 C 4.234375 -0.550781 3.425781 -0.988281 2.78125 -1.53125 C 2.132812 -2.070312 1.648438 -2.664062 1.328125 -3.3125 L 2.578125 -4.828125 L 2.90625 -4.828125 C 4.113281 -2.796875 5.976562 -1.78125 8.5 -1.78125 C 9.96875 -1.78125 11.054688 -2.085938 11.765625 -2.703125 C 12.484375 -3.316406 12.84375 -4.164062 12.84375 -5.25 C 12.84375 -5.894531 12.722656 -6.4375 12.484375 -6.875 C 12.253906 -7.320312 11.867188 -7.703125 11.328125 -8.015625 C 10.785156 -8.328125 10.046875 -8.597656 9.109375 -8.828125 L 6.84375 -9.390625 C 5.144531 -9.796875 3.894531 -10.445312 3.09375 -11.34375 C 2.289062 -12.238281 1.890625 -13.367188 1.890625 -14.734375 C 1.890625 -15.703125 2.132812 -16.5625 2.625 -17.3125 C 3.125 -18.070312 3.851562 -18.664062 4.8125 -19.09375 C 5.769531 -19.519531 6.914062 -19.734375 8.25 -19.734375 C 9.707031 -19.734375 10.941406 -19.523438 11.953125 -19.109375 C 12.960938 -18.703125 13.769531 -18.082031 14.375 -17.25 L 13.25 -15.75 L 12.921875 -15.75 C 12.359375 -16.4375 11.695312 -16.9375 10.9375 -17.25 C 10.175781 -17.570312 9.28125 -17.734375 8.25 -17.734375 C 6.90625 -17.734375 5.890625 -17.472656 5.203125 -16.953125 C 4.515625 -16.429688 4.171875 -15.707031 4.171875 -14.78125 C 4.171875 -13.90625 4.421875 -13.207031 4.921875 -12.6875 C 5.429688 -12.164062 6.285156 -11.765625 7.484375 -11.484375 L 9.8125 -10.921875 C 11.695312 -10.484375 13.0625 -9.800781 13.90625 -8.875 C 14.757812 -7.957031 15.1875 -6.785156 15.1875 -5.359375 C 15.1875 -4.265625 14.9375 -3.289062 14.4375 -2.4375 C 13.945312 -1.59375 13.203125 -0.925781 12.203125 -0.4375 C 11.203125 0.0390625 9.96875 0.28125 8.5 0.28125 Z M 8.5 0.28125 "/></g></g></g><g fill="#336f29" fill-opacity="1"><g transform="translate(108.610076, 353.77646)"><g><path d="M 5.234375 -9.171875 L 5.234375 -1.890625 L 15.140625 -1.890625 L 15.140625 0 L 2.9375 0 L 2.9375 -19.453125 L 14.921875 -19.453125 L 14.921875 -17.5625 L 5.234375 -17.5625 L 5.234375 -11.0625 L 13.78125 -11.0625 L 13.78125 -9.171875 Z M 5.234375 -9.171875 "/></g></g></g><g fill="#336f29" fill-opacity="1"><g transform="translate(137.050265, 353.77646)"><g><path d="M 10.75 0.28125 C 9.050781 0.28125 7.535156 -0.109375 6.203125 -0.890625 C 4.867188 -1.671875 3.820312 -2.8125 3.0625 -4.3125 C 2.3125 -5.820312 1.9375 -7.625 1.9375 -9.71875 C 1.9375 -11.820312 2.3125 -13.625 3.0625 -15.125 C 3.820312 -16.632812 4.867188 -17.78125 6.203125 -18.5625 C 7.535156 -19.34375 9.050781 -19.734375 10.75 -19.734375 C 12.570312 -19.734375 14.082031 -19.390625 15.28125 -18.703125 C 16.488281 -18.015625 17.359375 -16.976562 17.890625 -15.59375 L 16.4375 -14.625 L 16.09375 -14.625 C 15.5625 -15.726562 14.867188 -16.515625 14.015625 -16.984375 C 13.171875 -17.453125 12.082031 -17.6875 10.75 -17.6875 C 9.53125 -17.6875 8.441406 -17.410156 7.484375 -16.859375 C 6.535156 -16.316406 5.78125 -15.453125 5.21875 -14.265625 C 4.664062 -13.085938 4.390625 -11.570312 4.390625 -9.71875 C 4.390625 -7.875 4.664062 -6.363281 5.21875 -5.1875 C 5.78125 -4.007812 6.535156 -3.144531 7.484375 -2.59375 C 8.441406 -2.050781 9.53125 -1.78125 10.75 -1.78125 C 12.15625 -1.78125 13.304688 -2.097656 14.203125 -2.734375 C 15.097656 -3.367188 15.765625 -4.394531 16.203125 -5.8125 L 16.53125 -5.8125 L 18.0625 -5.0625 C 17.601562 -3.332031 16.75 -2.007812 15.5 -1.09375 C 14.257812 -0.175781 12.675781 0.28125 10.75 0.28125 Z M 10.75 0.28125 "/></g></g></g><g fill="#336f29" fill-opacity="1"><g transform="translate(168.136706, 353.77646)"><g><path d="M 10.03125 0.28125 C 7.644531 0.28125 5.835938 -0.320312 4.609375 -1.53125 C 3.390625 -2.75 2.78125 -4.546875 2.78125 -6.921875 L 2.78125 -19.453125 L 5.0625 -19.453125 L 5.0625 -6.953125 C 5.0625 -5.242188 5.46875 -3.960938 6.28125 -3.109375 C 7.101562 -2.265625 8.351562 -1.84375 10.03125 -1.84375 C 13.351562 -1.84375 15.015625 -3.546875 15.015625 -6.953125 L 15.015625 -19.453125 L 17.28125 -19.453125 L 17.28125 -6.921875 C 17.28125 -4.546875 16.664062 -2.75 15.4375 -1.53125 C 14.21875 -0.320312 12.414062 0.28125 10.03125 0.28125 Z M 10.03125 0.28125 "/></g></g></g><g fill="#336f29" fill-opacity="1"><g transform="translate(200.193897, 353.77646)"><g><path d="M 2.9375 0 L 2.9375 -19.453125 L 10 -19.453125 C 11.3125 -19.453125 12.410156 -19.234375 13.296875 -18.796875 C 14.179688 -18.367188 14.84375 -17.765625 15.28125 -16.984375 C 15.726562 -16.203125 15.953125 -15.273438 15.953125 -14.203125 C 15.953125 -12.992188 15.648438 -11.992188 15.046875 -11.203125 C 14.441406 -10.421875 13.503906 -9.835938 12.234375 -9.453125 L 12.234375 -9.171875 C 12.859375 -8.921875 13.367188 -8.53125 13.765625 -8 C 14.171875 -7.46875 14.539062 -6.671875 14.875 -5.609375 L 16.671875 0 L 14.3125 0 L 12.375 -5.953125 C 12.144531 -6.648438 11.878906 -7.195312 11.578125 -7.59375 C 11.273438 -8 10.890625 -8.289062 10.421875 -8.46875 C 9.960938 -8.644531 9.378906 -8.734375 8.671875 -8.734375 L 5.234375 -8.734375 L 5.234375 0 Z M 9.953125 -10.671875 C 11.171875 -10.671875 12.078125 -10.953125 12.671875 -11.515625 C 13.265625 -12.078125 13.5625 -12.9375 13.5625 -14.09375 C 13.5625 -15.25 13.265625 -16.109375 12.671875 -16.671875 C 12.078125 -17.234375 11.171875 -17.515625 9.953125 -17.515625 L 5.234375 -17.515625 L 5.234375 -10.671875 Z M 9.953125 -10.671875 "/></g></g></g><g fill="#336f29" fill-opacity="1"><g transform="translate(230.216514, 353.77646)"><g><path d="M 5.234375 0 L 2.9375 0 L 2.9375 -19.453125 L 5.234375 -19.453125 Z M 5.234375 0 "/></g></g></g><g fill="#336f29" fill-opacity="1"><g transform="translate(250.412063, 353.77646)"><g><path d="M 15.1875 -19.453125 L 15.1875 -17.515625 L 9.09375 -17.515625 L 9.09375 0 L 6.8125 0 L 6.8125 -17.515625 L 0.71875 -17.515625 L 0.71875 -19.453125 Z M 15.1875 -19.453125 "/></g></g></g><g fill="#336f29" fill-opacity="1"><g transform="translate(278.307032, 353.77646)"><g><path d="M 9.5 0 L 7.21875 0 L 7.21875 -7.640625 L 0.5 -19.453125 L 3 -19.453125 L 8.25 -10.34375 L 8.578125 -10.34375 L 13.78125 -19.453125 L 16.234375 -19.453125 L 9.5 -7.640625 Z M 9.5 0 "/></g></g></g></svg>